PathFileType	4	(X/Y/Z)	C:\Users\Willi\Documents\GitHub\processC3D_GUI\exampleC3Dfiles\fws_end01_L1\marker_experimental.trc
DataRate	CameraRate	NumFrames	NumMarkers	Units	OrigDataRate	OrigDataStartFrame	OrigNumFrames
2.000000e+02	2.000000e+02	12	51	m	2.000000e+02	40	317
Frame#	Time	CLAV			GLAB			LANK			LASI			LELB			LFIN			LFMH			LHEE			LKNE			LMAS			LPEL			LPSI			LSHO			LTHAD			LTHAP			LTHI			LTIAD			LTIAP			LTIB			LTOE			LVMH			LWRA			LWRB			RANK			RASI			RBAK			RELB			RFIN			RFMH			RHEE			RKNE			RMAS			RPEL			RPSI			RSHO			RTHAD			RTHAP			RTHI			RTIAD			RTIAP			RTIB			RTOE			RVMH			RWRA			RWRB			SACR			T10			T2			not_labelled_48			not_labelled_49			not_labelled_50		
		X1	Y1	Z1	X2	Y2	Z2	X3	Y3	Z3	X4	Y4	Z4	X5	Y5	Z5	X6	Y6	Z6	X7	Y7	Z7	X8	Y8	Z8	X9	Y9	Z9	X10	Y10	Z10	X11	Y11	Z11	X12	Y12	Z12	X13	Y13	Z13	X14	Y14	Z14	X15	Y15	Z15	X16	Y16	Z16	X17	Y17	Z17	X18	Y18	Z18	X19	Y19	Z19	X20	Y20	Z20	X21	Y21	Z21	X22	Y22	Z22	X23	Y23	Z23	X24	Y24	Z24	X25	Y25	Z25	X26	Y26	Z26	X27	Y27	Z27	X28	Y28	Z28	X29	Y29	Z29	X30	Y30	Z30	X31	Y31	Z31	X32	Y32	Z32	X33	Y33	Z33	X34	Y34	Z34	X35	Y35	Z35	X36	Y36	Z36	X37	Y37	Z37	X38	Y38	Z38	X39	Y39	Z39	X40	Y40	Z40	X41	Y41	Z41	X42	Y42	Z42	X43	Y43	Z43	X44	Y44	Z44	X45	Y45	Z45	X46	Y46	Z46	X47	Y47	Z47	X48	Y48	Z48	X49	Y49	Z49	X50	Y50	Z50	X51	Y51	Z51
40	0.77000	0.509	1.363	0.354	0.632	1.578	0.373	0.742	0.112	0.265	0.492	0.976	0.255	0.344	1.097	0.116	0.294	0.774	0.095	0.938	0.164	0.327	0.697	0.071	0.311	0.593	0.514	0.233	0.502	1.539	0.295	0.430	0.994	0.221	0.333	0.993	0.296	0.470	1.395	0.191	0.553	0.649	0.205	0.515	0.703	0.201	0.503	0.640	0.212	0.711	0.259	0.247	0.670	0.309	0.235	0.663	0.244	0.243	0.900	0.158	0.298	0.932	0.157	0.271	0.329	0.838	0.116	0.282	0.858	0.081	0.108	0.119	0.432	0.455	0.979	0.490	0.318	1.347	0.445	0.442	1.062	0.598	0.643	0.826	0.612	0.293	0.060	0.357	0.036	0.109	0.388	0.307	0.502	0.489	0.496	1.530	0.439	0.396	1.034	0.500	0.311	1.007	0.402	0.458	1.387	0.517	0.363	0.644	0.514	0.374	0.708	0.524	0.320	0.672	0.517	0.200	0.250	0.460	0.220	0.311	0.475	0.161	0.282	0.471	0.254	0.076	0.381	0.276	0.054	0.414	0.625	0.867	0.575	0.577	0.838	0.626	0.325	1.029	0.347	0.302	1.220	0.350	0.379	1.435	0.360	-0.000	0.011	-0.000	0.720	0.012	-0.006	-0.001	0.011	0.762
41	0.77500	0.509	1.362	0.354	0.633	1.577	0.373	0.739	0.111	0.267	0.493	0.975	0.255	0.344	1.096	0.116	0.295	0.773	0.095	0.936	0.160	0.329	0.694	0.071	0.314	0.594	0.514	0.234	0.502	1.539	0.294	0.431	0.994	0.221	0.334	0.992	0.296	0.470	1.394	0.190	0.555	0.649	0.206	0.517	0.702	0.202	0.505	0.639	0.213	0.710	0.258	0.248	0.669	0.308	0.237	0.661	0.243	0.245	0.898	0.155	0.300	0.930	0.154	0.273	0.329	0.837	0.116	0.282	0.857	0.080	0.103	0.121	0.433	0.456	0.978	0.490	0.318	1.347	0.445	0.442	1.062	0.598	0.643	0.825	0.612	0.286	0.060	0.357	0.031	0.111	0.388	0.306	0.501	0.489	0.497	1.530	0.438	0.397	1.033	0.500	0.311	1.006	0.401	0.458	1.386	0.516	0.363	0.643	0.514	0.374	0.708	0.524	0.320	0.672	0.517	0.196	0.251	0.460	0.217	0.312	0.475	0.158	0.283	0.471	0.249	0.076	0.381	0.270	0.053	0.414	0.625	0.867	0.575	0.577	0.837	0.626	0.326	1.028	0.346	0.302	1.219	0.349	0.380	1.434	0.359	-0.000	0.011	-0.000	0.720	0.012	-0.006	-0.001	0.011	0.762
42	0.78000	0.510	1.362	0.353	0.633	1.576	0.372	0.736	0.110	0.269	0.494	0.975	0.254	0.344	1.095	0.116	0.295	0.773	0.094	0.934	0.155	0.330	0.690	0.071	0.316	0.596	0.514	0.235	0.503	1.538	0.293	0.432	0.993	0.221	0.335	0.992	0.295	0.470	1.393	0.189	0.556	0.648	0.207	0.518	0.702	0.202	0.506	0.639	0.214	0.708	0.256	0.250	0.669	0.307	0.239	0.660	0.242	0.247	0.895	0.151	0.302	0.927	0.149	0.274	0.330	0.836	0.115	0.282	0.856	0.080	0.098	0.122	0.433	0.456	0.977	0.489	0.319	1.346	0.444	0.442	1.061	0.597	0.643	0.825	0.612	0.280	0.060	0.357	0.026	0.113	0.389	0.305	0.501	0.490	0.497	1.529	0.438	0.398	1.032	0.499	0.312	1.005	0.401	0.458	1.386	0.515	0.362	0.643	0.514	0.374	0.707	0.524	0.319	0.671	0.517	0.192	0.252	0.460	0.214	0.312	0.476	0.155	0.285	0.472	0.244	0.075	0.381	0.263	0.053	0.414	0.624	0.866	0.575	0.576	0.837	0.626	0.326	1.028	0.346	0.303	1.219	0.349	0.380	1.434	0.358	-0.000	0.011	-0.000	0.720	0.012	-0.006	-0.001	0.011	0.762
43	0.78500	0.510	1.361	0.353	0.633	1.576	0.372	0.733	0.109	0.271	0.496	0.975	0.254	0.344	1.094	0.115	0.296	0.772	0.094	0.932	0.150	0.332	0.687	0.071	0.318	0.597	0.513	0.236	0.503	1.538	0.292	0.432	0.992	0.220	0.335	0.991	0.295	0.471	1.393	0.188	0.558	0.648	0.207	0.520	0.702	0.203	0.508	0.639	0.215	0.707	0.254	0.252	0.668	0.306	0.240	0.658	0.241	0.249	0.893	0.147	0.303	0.925	0.145	0.276	0.331	0.835	0.115	0.282	0.855	0.080	0.093	0.124	0.433	0.457	0.976	0.489	0.319	1.345	0.443	0.442	1.061	0.597	0.642	0.824	0.612	0.274	0.060	0.357	0.022	0.116	0.389	0.304	0.501	0.490	0.497	1.529	0.437	0.398	1.032	0.499	0.313	1.005	0.400	0.458	1.386	0.515	0.362	0.642	0.514	0.374	0.707	0.524	0.319	0.671	0.517	0.189	0.253	0.461	0.211	0.313	0.476	0.151	0.286	0.472	0.238	0.074	0.381	0.257	0.053	0.413	0.624	0.865	0.575	0.576	0.836	0.626	0.327	1.027	0.345	0.304	1.218	0.348	0.380	1.433	0.357	-0.000	0.011	-0.000	0.720	0.012	-0.006	-0.001	0.011	0.762
44	0.79000	0.510	1.361	0.352	0.634	1.576	0.371	0.730	0.108	0.273	0.497	0.974	0.254	0.345	1.093	0.115	0.297	0.771	0.093	0.929	0.144	0.334	0.683	0.071	0.319	0.598	0.513	0.237	0.504	1.537	0.291	0.433	0.992	0.220	0.336	0.991	0.295	0.471	1.392	0.188	0.560	0.648	0.208	0.522	0.702	0.204	0.510	0.639	0.216	0.706	0.253	0.254	0.667	0.305	0.242	0.657	0.240	0.251	0.891	0.143	0.305	0.923	0.140	0.278	0.332	0.835	0.114	0.283	0.854	0.080	0.089	0.126	0.434	0.458	0.976	0.489	0.319	1.345	0.442	0.442	1.061	0.596	0.641	0.823	0.612	0.268	0.060	0.357	0.017	0.119	0.390	0.303	0.501	0.490	0.497	1.529	0.436	0.399	1.031	0.499	0.314	1.004	0.400	0.458	1.385	0.514	0.362	0.642	0.514	0.374	0.706	0.524	0.319	0.671	0.517	0.186	0.254	0.461	0.209	0.314	0.476	0.148	0.287	0.472	0.233	0.074	0.382	0.250	0.053	0.413	0.623	0.865	0.575	0.575	0.836	0.626	0.328	1.026	0.345	0.305	1.217	0.347	0.381	1.433	0.356	-0.000	0.011	-0.000	0.720	0.012	-0.006	-0.001	0.011	0.762
45	0.79500	0.511	1.360	0.351	0.634	1.575	0.371	0.727	0.108	0.275	0.498	0.974	0.253	0.345	1.093	0.115	0.298	0.770	0.093	0.927	0.138	0.336	0.679	0.072	0.320	0.599	0.513	0.238	0.504	1.537	0.291	0.434	0.992	0.220	0.337	0.990	0.294	0.472	1.391	0.187	0.561	0.648	0.209	0.523	0.702	0.204	0.511	0.639	0.217	0.705	0.252	0.256	0.667	0.304	0.243	0.656	0.239	0.252	0.888	0.138	0.308	0.920	0.134	0.280	0.333	0.834	0.114	0.284	0.854	0.080	0.084	0.127	0.435	0.459	0.975	0.488	0.320	1.344	0.441	0.441	1.061	0.595	0.641	0.823	0.612	0.261	0.060	0.357	0.013	0.122	0.390	0.303	0.500	0.490	0.497	1.529	0.435	0.401	1.031	0.498	0.315	1.004	0.400	0.458	1.385	0.513	0.362	0.641	0.514	0.374	0.706	0.524	0.319	0.670	0.517	0.183	0.255	0.462	0.206	0.315	0.477	0.146	0.289	0.472	0.228	0.073	0.382	0.244	0.053	0.413	0.623	0.864	0.575	0.574	0.836	0.626	0.329	1.026	0.345	0.305	1.217	0.347	0.381	1.432	0.355	-0.000	0.011	-0.000	0.720	0.012	-0.006	-0.001	0.011	0.762
46	0.80000	0.511	1.360	0.351	0.634	1.575	0.370	0.724	0.107	0.276	0.499	0.974	0.253	0.346	1.092	0.114	0.299	0.770	0.092	0.924	0.132	0.339	0.675	0.072	0.321	0.601	0.513	0.239	0.505	1.537	0.290	0.435	0.992	0.219	0.338	0.990	0.294	0.472	1.391	0.186	0.563	0.648	0.210	0.525	0.701	0.205	0.513	0.639	0.218	0.703	0.251	0.257	0.666	0.303	0.245	0.654	0.239	0.254	0.886	0.134	0.310	0.918	0.129	0.282	0.334	0.833	0.113	0.285	0.853	0.080	0.080	0.129	0.435	0.460	0.974	0.488	0.320	1.344	0.440	0.441	1.060	0.595	0.640	0.822	0.612	0.255	0.060	0.357	0.009	0.125	0.391	0.303	0.500	0.491	0.498	1.529	0.435	0.402	1.030	0.498	0.316	1.003	0.399	0.459	1.385	0.513	0.362	0.641	0.514	0.375	0.705	0.524	0.320	0.670	0.517	0.180	0.256	0.463	0.204	0.316	0.477	0.143	0.291	0.472	0.222	0.072	0.382	0.237	0.052	0.413	0.622	0.864	0.575	0.573	0.835	0.626	0.330	1.025	0.345	0.306	1.216	0.346	0.382	1.432	0.354	-0.000	0.011	-0.000	0.720	0.012	-0.006	-0.001	0.011	0.762
47	0.80500	0.512	1.360	0.350	0.635	1.575	0.370	0.720	0.106	0.277	0.500	0.974	0.252	0.346	1.092	0.114	0.301	0.769	0.091	0.921	0.126	0.341	0.671	0.073	0.322	0.602	0.513	0.240	0.506	1.537	0.289	0.436	0.991	0.219	0.339	0.990	0.293	0.472	1.390	0.185	0.564	0.648	0.211	0.526	0.702	0.205	0.514	0.639	0.219	0.702	0.250	0.259	0.666	0.303	0.246	0.653	0.238	0.255	0.883	0.129	0.312	0.915	0.124	0.284	0.335	0.833	0.113	0.286	0.852	0.079	0.076	0.131	0.436	0.461	0.974	0.488	0.320	1.344	0.439	0.441	1.060	0.594	0.639	0.822	0.612	0.249	0.060	0.357	0.005	0.128	0.391	0.302	0.500	0.491	0.498	1.529	0.434	0.403	1.030	0.498	0.317	1.003	0.399	0.459	1.385	0.512	0.363	0.641	0.514	0.375	0.705	0.524	0.320	0.670	0.517	0.177	0.257	0.463	0.202	0.317	0.478	0.141	0.292	0.473	0.217	0.071	0.383	0.231	0.052	0.413	0.621	0.863	0.575	0.573	0.835	0.626	0.332	1.025	0.344	0.307	1.216	0.346	0.382	1.432	0.354	-0.000	0.011	-0.000	0.720	0.012	-0.006	-0.001	0.011	0.762
48	0.81000	0.512	1.360	0.349	0.635	1.575	0.369	0.717	0.106	0.278	0.501	0.974	0.252	0.347	1.091	0.114	0.302	0.769	0.091	0.918	0.120	0.343	0.667	0.074	0.323	0.603	0.514	0.241	0.506	1.536	0.288	0.437	0.991	0.219	0.340	0.990	0.293	0.473	1.390	0.184	0.566	0.648	0.211	0.528	0.702	0.206	0.516	0.640	0.220	0.701	0.249	0.261	0.666	0.302	0.247	0.652	0.238	0.256	0.880	0.125	0.314	0.912	0.118	0.287	0.337	0.832	0.112	0.287	0.851	0.079	0.072	0.133	0.437	0.462	0.973	0.487	0.321	1.343	0.438	0.440	1.060	0.594	0.638	0.822	0.612	0.243	0.060	0.357	0.001	0.132	0.392	0.303	0.500	0.492	0.498	1.529	0.433	0.404	1.029	0.497	0.318	1.002	0.399	0.459	1.385	0.511	0.363	0.641	0.515	0.376	0.705	0.524	0.320	0.670	0.517	0.174	0.258	0.464	0.200	0.318	0.479	0.139	0.294	0.473	0.212	0.070	0.383	0.224	0.052	0.413	0.620	0.863	0.575	0.572	0.835	0.626	0.333	1.025	0.344	0.308	1.215	0.345	0.383	1.431	0.353	-0.000	0.011	-0.000	0.719	0.012	-0.006	-0.001	0.011	0.762
49	0.81500	0.513	1.360	0.348	0.636	1.575	0.368	0.714	0.105	0.279	0.502	0.974	0.251	0.348	1.091	0.113	0.304	0.768	0.090	0.915	0.114	0.346	0.663	0.075	0.323	0.605	0.514	0.242	0.507	1.536	0.287	0.439	0.992	0.218	0.341	0.990	0.293	0.473	1.390	0.184	0.567	0.648	0.212	0.529	0.702	0.206	0.517	0.640	0.221	0.701	0.248	0.262	0.665	0.302	0.249	0.652	0.238	0.256	0.877	0.120	0.316	0.910	0.113	0.289	0.338	0.832	0.112	0.288	0.851	0.079	0.068	0.136	0.437	0.464	0.973	0.487	0.321	1.343	0.437	0.440	1.061	0.593	0.637	0.821	0.613	0.236	0.061	0.357	-0.002	0.136	0.393	0.303	0.500	0.493	0.498	1.529	0.432	0.406	1.029	0.497	0.319	1.002	0.398	0.460	1.385	0.510	0.364	0.640	0.515	0.376	0.705	0.524	0.321	0.669	0.517	0.172	0.260	0.465	0.198	0.319	0.479	0.137	0.296	0.473	0.206	0.069	0.383	0.218	0.052	0.413	0.620	0.863	0.575	0.570	0.835	0.627	0.334	1.025	0.344	0.309	1.215	0.345	0.383	1.431	0.352	-0.000	0.011	-0.000	0.719	0.012	-0.006	-0.001	0.011	0.762
50	0.82000	0.513	1.360	0.347	0.636	1.575	0.368	0.711	0.105	0.280	0.503	0.975	0.251	0.349	1.090	0.113	0.306	0.768	0.090	0.912	0.109	0.348	0.658	0.075	0.323	0.606	0.514	0.243	0.507	1.537	0.286	0.440	0.992	0.218	0.342	0.990	0.293	0.473	1.390	0.183	0.569	0.649	0.213	0.531	0.702	0.206	0.519	0.641	0.222	0.700	0.247	0.263	0.665	0.302	0.249	0.651	0.238	0.257	0.874	0.116	0.318	0.907	0.108	0.291	0.340	0.831	0.112	0.290	0.850	0.079	0.065	0.138	0.438	0.465	0.973	0.486	0.322	1.343	0.437	0.439	1.061	0.593	0.635	0.821	0.613	0.230	0.061	0.357	-0.005	0.140	0.393	0.304	0.500	0.493	0.499	1.529	0.431	0.407	1.029	0.497	0.320	1.002	0.398	0.460	1.385	0.509	0.365	0.640	0.516	0.377	0.705	0.524	0.322	0.669	0.517	0.170	0.261	0.466	0.197	0.320	0.480	0.135	0.298	0.474	0.201	0.068	0.383	0.211	0.052	0.413	0.619	0.862	0.575	0.569	0.835	0.627	0.335	1.025	0.344	0.310	1.215	0.344	0.383	1.431	0.351	-0.000	0.011	-0.000	0.719	0.012	-0.006	-0.001	0.011	0.762
51	0.82500	0.514	1.361	0.347	0.636	1.576	0.367	0.708	0.104	0.280	0.505	0.975	0.251	0.350	1.090	0.113	0.308	0.767	0.089	0.908	0.104	0.350	0.654	0.076	0.323	0.608	0.515	0.243	0.508	1.537	0.285	0.441	0.992	0.218	0.344	0.990	0.292	0.474	1.390	0.182	0.570	0.649	0.213	0.532	0.703	0.207	0.520	0.641	0.223	0.699	0.247	0.264	0.665	0.302	0.250	0.650	0.238	0.257	0.871	0.112	0.320	0.904	0.103	0.293	0.342	0.831	0.111	0.291	0.850	0.079	0.062	0.140	0.439	0.466	0.972	0.486	0.323	1.343	0.436	0.439	1.061	0.592	0.634	0.820	0.613	0.224	0.061	0.357	-0.008	0.145	0.394	0.305	0.500	0.494	0.499	1.529	0.430	0.409	1.029	0.497	0.322	1.002	0.398	0.461	1.386	0.509	0.366	0.640	0.516	0.378	0.704	0.524	0.323	0.669	0.517	0.168	0.263	0.467	0.196	0.321	0.481	0.134	0.300	0.474	0.196	0.067	0.384	0.205	0.052	0.413	0.618	0.862	0.575	0.568	0.834	0.627	0.336	1.025	0.344	0.311	1.215	0.344	0.384	1.431	0.350	0.000	0.011	-0.000	0.719	0.012	-0.006	-0.001	0.011	0.762
